<?xml version="1.0" standalone="no"?>
<!DOCTYPE svg PUBLIC "-//W3C//DTD SVG 20010904//EN"
 "http://www.w3.org/TR/2001/REC-SVG-20010904/DTD/svg10.dtd">
<svg version="1.0" xmlns="http://www.w3.org/2000/svg"
 width="250.000000pt" height="247.000000pt" viewBox="0 0 250.000000 247.000000"
 preserveAspectRatio="xMidYMid meet">

<g transform="translate(0.000000,247.000000) scale(0.100000,-0.100000)"
fill="#000000" stroke="none">
<path d="M1196 2388 c-3 -13 -6 -34 -6 -48 0 -38 -12 -49 -61 -56 l-44 -5 -23
54 -23 55 -57 -17 -57 -17 3 -62 4 -61 -40 -20 -41 -21 -39 47 -40 46 -45 -27
c-25 -14 -49 -31 -52 -36 -3 -5 4 -32 16 -60 l22 -51 -28 -29 c-16 -17 -32
-30 -37 -30 -4 0 -29 14 -56 30 l-47 30 -42 -46 -43 -46 41 -48 40 -48 -23
-36 c-26 -41 -28 -42 -92 -20 -27 9 -51 13 -56 8 -5 -5 -18 -30 -29 -56 l-20
-48 47 -31 c26 -18 49 -34 51 -35 2 -2 -2 -24 -9 -49 l-13 -46 -60 2 c-67 3
-66 5 -80 -83 l-6 -38 62 -18 62 -18 0 -44 0 -44 -61 -19 -61 -18 5 -47 c5
-49 17 -83 30 -81 4 1 30 1 59 0 48 -1 52 -3 62 -32 17 -48 15 -52 -44 -87
l-55 -33 26 -52 c15 -29 28 -54 30 -56 2 -2 31 4 65 13 33 10 62 16 63 14 1
-2 13 -18 26 -36 l23 -34 -48 -48 -47 -48 38 -46 c21 -25 43 -46 49 -46 5 0
30 14 55 30 25 16 50 30 56 30 5 0 22 -12 36 -28 25 -25 26 -29 13 -58 -10
-25 -24 -34 -81 -53 -83 -28 -334 -146 -334 -158 0 -4 16 -28 35 -52 39 -48
36 -60 -16 -81 -16 -7 -28 -16 -27 -21 7 -18 190 -209 201 -209 7 0 49 24 94
53 l82 52 -30 48 c-16 26 -29 49 -29 51 0 7 175 74 250 95 109 30 171 41 298
50 241 19 494 -25 716 -123 l58 -26 -26 -44 c-14 -25 -26 -47 -26 -49 0 -6
158 -107 168 -107 4 0 54 46 110 103 111 112 110 108 42 142 -19 10 -37 19
-38 21 -2 1 10 23 27 48 17 24 31 49 31 54 0 10 -229 120 -309 148 -38 13 -60
28 -72 49 -18 29 -18 30 8 57 34 35 44 35 100 -4 52 -35 59 -33 106 25 l29 36
-42 50 -42 50 22 35 c23 38 32 39 98 15 46 -17 59 -11 81 41 12 28 19 55 16
60 -3 5 -26 22 -51 36 -44 26 -45 28 -39 63 4 20 9 39 11 43 3 5 34 8 69 8
l64 0 6 33 c16 88 15 90 -48 110 l-58 19 3 46 3 46 52 16 c28 8 54 18 58 21 3
3 2 30 -2 60 l-8 54 -65 5 -64 5 -12 42 -13 42 37 22 c74 45 74 45 45 103 -14
28 -27 53 -29 55 -1 2 -24 -4 -50 -13 -64 -21 -66 -21 -92 20 l-23 35 41 49
40 48 -36 43 c-20 24 -38 46 -40 48 -2 2 -26 -11 -54 -29 l-50 -32 -35 26
c-19 15 -35 31 -35 37 0 5 11 32 25 58 l24 49 -53 35 -54 36 -38 -45 -39 -45
-42 18 c-45 19 -47 23 -34 91 9 43 8 44 -26 58 -19 8 -46 17 -62 20 -24 5 -29
1 -46 -38 -29 -66 -29 -66 -84 -55 l-49 9 -9 57 -8 56 -61 3 c-57 3 -62 1 -68
-20z m119 0 c2 -7 6 -34 10 -60 6 -44 9 -48 38 -53 84 -15 89 -14 115 40 13
28 25 51 26 52 2 2 24 -4 50 -13 l47 -16 -7 -58 -6 -58 50 -26 50 -25 39 46
39 46 42 -28 c23 -15 42 -29 42 -31 0 -2 -11 -28 -25 -56 l-25 -52 42 -37 43
-37 30 19 c68 45 73 46 105 8 16 -19 29 -37 30 -40 0 -3 -17 -25 -37 -48 l-36
-43 24 -45 c13 -25 27 -46 30 -49 4 -2 26 3 49 11 63 22 74 19 90 -22 8 -21
16 -41 18 -45 2 -4 -19 -22 -48 -40 -47 -29 -50 -34 -44 -62 16 -74 18 -76 83
-76 33 0 62 -3 64 -8 3 -4 7 -27 8 -52 l4 -44 -63 -19 -63 -18 3 -52 3 -52 58
-19 c55 -18 57 -20 57 -53 0 -59 -12 -71 -71 -66 -57 4 -74 -5 -82 -45 -3 -15
-8 -34 -12 -43 -4 -12 8 -25 47 -50 29 -18 54 -34 56 -35 5 -3 -42 -94 -49
-94 -3 0 -26 7 -49 15 -62 22 -74 19 -103 -26 l-27 -41 45 -51 45 -51 -37 -38
-36 -37 -54 35 -54 35 -40 -32 c-28 -22 -38 -36 -33 -48 20 -50 21 -50 -70
-25 -48 12 -120 28 -162 35 l-77 12 63 28 c259 118 420 368 420 652 0 122 -19
204 -71 312 -82 168 -220 290 -409 361 -70 26 -85 28 -230 28 -150 0 -158 -1
-238 -31 -229 -88 -410 -292 -457 -518 -68 -326 94 -654 394 -797 l66 -31
-109 -19 c-59 -10 -131 -25 -159 -33 -28 -8 -52 -13 -54 -11 -2 2 2 16 9 31
12 26 10 30 -26 61 -35 30 -42 33 -60 21 -12 -7 -37 -23 -58 -35 l-36 -22 -32
40 -32 41 41 44 c23 25 41 47 41 50 0 19 -48 85 -61 85 -9 0 -38 -7 -65 -15
-27 -8 -50 -15 -51 -15 -4 0 -43 93 -41 95 4 3 103 68 105 69 1 1 -5 25 -13
54 l-16 52 -63 0 -64 0 -6 34 c-11 57 -4 69 49 82 27 7 53 17 58 22 5 5 8 31
6 58 l-3 48 -52 16 c-29 9 -55 18 -58 22 -4 3 -3 27 0 52 l7 46 63 0 63 0 16
52 c8 29 14 53 13 54 -46 27 -97 67 -97 75 0 5 9 27 20 49 l20 39 56 -19 c64
-22 62 -23 100 46 l17 32 -36 43 c-20 23 -37 45 -37 48 0 3 14 21 31 40 34 36
38 36 105 -9 l31 -20 43 38 43 38 -27 51 -26 52 44 30 44 31 39 -46 38 -45 52
22 52 21 -6 47 c-3 25 -7 52 -7 60 -1 11 92 49 98 39 1 -2 12 -26 25 -55 23
-50 24 -51 60 -46 62 10 81 21 81 47 0 13 3 38 6 55 6 30 9 31 56 31 30 0 50
-5 53 -12z m98 -304 c153 -34 309 -133 402 -256 266 -351 151 -850 -241 -1049
l-87 -44 -216 -1 c-212 0 -217 0 -283 27 -188 75 -335 241 -399 449 -33 105
-33 283 -1 386 78 252 273 433 527 489 83 19 212 18 298 -1z m107 -1381 c204
-29 383 -85 567 -176 l102 -50 -66 -96 c-36 -53 -71 -101 -77 -108 -9 -10 -36
0 -121 43 -221 110 -425 158 -680 158 -255 -1 -461 -48 -680 -158 l-103 -52
-86 103 -86 103 107 53 c354 177 732 238 1123 180z m690 -386 c1 -5 -39 -51
-90 -102 l-91 -94 -69 42 c-38 23 -70 45 -70 49 0 4 34 12 76 19 l75 13 45 62
44 63 39 -22 c21 -12 39 -26 41 -30z m-1799 -12 c24 -30 53 -57 64 -59 11 -3
49 -11 85 -18 l65 -13 -75 -47 -75 -47 -73 72 c-41 40 -82 84 -93 99 l-19 26
33 21 c17 11 35 21 38 21 4 0 26 -25 50 -55z"/>
<path d="M1286 2224 c-3 -9 -5 -30 -5 -47 1 -24 3 -26 6 -9 2 12 9 22 14 22
12 0 12 37 0 44 -5 3 -12 -1 -15 -10z"/>
<path d="M1140 2214 c0 -14 -3 -14 -15 -4 -9 8 -15 9 -15 2 0 -6 5 -14 10 -17
6 -3 10 -15 10 -25 0 -10 4 -21 8 -24 5 -3 9 15 10 39 0 25 -2 45 -4 45 -2 0
-4 -7 -4 -16z"/>
<path d="M1213 2195 c0 -22 2 -30 4 -17 2 12 2 30 0 40 -3 9 -5 -1 -4 -23z"/>
<path d="M1241 2213 c1 -10 5 -29 9 -43 7 -21 8 -19 9 18 1 23 -3 42 -9 42 -5
0 -10 -8 -9 -17z"/>
<path d="M1322 2202 c-14 -31 -16 -52 -3 -52 8 0 26 69 19 75 -2 2 -9 -8 -16
-23z"/>
<path d="M1365 2208 c-11 -53 -10 -62 9 -66 10 -2 22 2 27 10 14 22 10 65 -7
72 -23 9 -23 8 -29 -16z m29 -32 c-3 -14 -10 -26 -15 -26 -10 0 -12 31 -3 55
10 26 26 1 18 -29z"/>
<path d="M1050 2205 c-7 -9 -9 -26 -5 -45 5 -23 12 -30 31 -30 17 0 24 6 24
18 0 22 -9 33 -22 26 -5 -3 -4 -12 3 -20 9 -11 8 -14 -5 -14 -9 0 -16 3 -16 8
0 4 -3 18 -7 31 -5 21 -3 23 16 18 18 -4 20 -3 10 9 -14 17 -14 17 -29 -1z"/>
<path d="M1436 2193 c-4 -16 -9 -37 -13 -48 -3 -14 -2 -17 5 -10 11 11 28 85
19 85 -3 0 -8 -12 -11 -27z"/>
<path d="M1471 2164 c-21 -35 -21 -35 -1 -29 11 4 20 2 20 -4 0 -6 5 -11 10
-11 6 0 10 18 10 40 0 49 -12 51 -39 4z m29 -4 c0 -5 -4 -10 -10 -10 -5 0 -10
5 -10 10 0 6 5 10 10 10 6 0 10 -4 10 -10z"/>
<path d="M975 2180 c-10 -16 4 -68 20 -74 23 -8 38 20 28 51 -10 29 -36 42
-48 23z m33 -25 c7 -14 12 -28 12 -30 0 -8 -30 -5 -30 3 0 4 -3 17 -6 30 -9
30 10 28 24 -3z"/>
<path d="M1536 2144 c-9 -20 -14 -39 -11 -42 3 -4 8 4 12 16 3 12 9 22 14 22
5 0 7 -11 3 -25 -10 -39 15 -30 32 11 8 20 13 39 10 42 -3 2 -10 -6 -15 -19
l-10 -24 0 28 c-1 37 -14 34 -35 -9z"/>
<path d="M911 2152 c-1 -18 28 -72 39 -72 5 0 12 5 15 10 3 6 0 10 -8 10 -7 0
-21 15 -30 33 -8 17 -16 26 -16 19z"/>
<path d="M851 2126 c-10 -12 -9 -21 5 -46 20 -33 41 -39 51 -14 6 17 -18 66
-35 72 -5 1 -15 -4 -21 -12z m37 -27 c9 -14 10 -25 4 -31 -7 -7 -16 0 -26 21
-13 24 -13 31 -4 31 7 0 19 -10 26 -21z"/>
<path d="M1645 2120 c-3 -5 -3 -21 1 -35 4 -15 2 -25 -4 -25 -6 0 -13 8 -15
18 -4 16 -5 16 -6 -1 -1 -22 26 -34 42 -18 9 9 9 16 -1 31 -6 10 -8 22 -3 25
5 3 11 -1 14 -7 2 -7 8 -10 12 -6 10 9 -3 28 -20 28 -8 0 -16 -4 -20 -10z"/>
<path d="M814 2078 c8 -13 14 -27 13 -33 -1 -5 6 -11 16 -13 16 -3 16 0 -5 32
-13 20 -26 36 -31 36 -4 0 -1 -10 7 -22z"/>
<path d="M1695 2066 c-17 -26 -15 -56 4 -56 5 0 13 5 17 12 5 8 2 9 -9 5 -23
-9 -22 15 1 36 20 19 37 23 27 7 -3 -5 -1 -10 5 -10 17 0 6 24 -13 28 -9 2
-23 -8 -32 -22z"/>
<path d="M770 2074 c0 -12 42 -65 48 -60 2 3 -1 12 -8 21 -10 12 -10 15 1 15
9 1 8 5 -5 15 -21 16 -36 19 -36 9z"/>
<path d="M747 2031 c6 -23 -6 -28 -26 -8 -11 10 -12 8 -3 -8 13 -25 52 -62 52
-49 0 6 -5 15 -12 22 -17 17 -2 27 17 12 29 -24 25 -4 -5 25 -26 25 -28 25
-23 6z"/>
<path d="M1758 2033 c-8 -10 -19 -25 -23 -33 -8 -13 -7 -13 8 -1 23 18 35 6
19 -19 -18 -29 -5 -24 23 8 27 30 33 51 10 32 -9 -7 -18 -10 -22 -7 -3 4 0 13
7 22 7 8 8 15 3 15 -6 0 -17 -8 -25 -17z"/>
<path d="M663 1984 c-8 -22 38 -67 60 -58 18 7 24 34 7 34 -5 0 -9 -3 -9 -7 4
-23 -4 -24 -26 -3 -22 21 -26 48 -4 35 5 -4 9 -1 9 4 0 17 -30 13 -37 -5z"/>
<path d="M1807 1972 c-21 -22 -24 -31 -15 -40 18 -18 32 -15 58 13 19 20 21
27 10 40 -17 21 -22 19 -53 -13z m43 0 c0 -14 -39 -46 -47 -39 -3 4 2 16 12
27 19 21 35 26 35 12z"/>
<path d="M621 1936 c-9 -10 -4 -19 23 -39 31 -24 35 -25 47 -10 12 14 11 15
-10 8 -21 -6 -23 -5 -18 14 4 18 3 20 -8 11 -15 -12 -31 3 -20 20 9 15 -1 12
-14 -4z"/>
<path d="M1853 1916 c-27 -24 -27 -26 -11 -42 17 -17 19 -17 48 11 23 22 27
32 19 42 -16 18 -24 17 -56 -11z m31 -21 c-11 -8 -22 -15 -26 -15 -16 0 -7 19
14 35 28 19 39 0 12 -20z"/>
<path d="M583 1889 c-16 -16 -17 -33 -2 -24 5 4 18 0 27 -7 26 -23 42 -30 42
-20 0 5 -11 15 -25 22 -13 7 -25 19 -27 27 -2 11 -5 12 -15 2z"/>
<path d="M1901 1862 c-32 -26 -32 -28 -15 -42 15 -12 16 -12 9 -1 -6 10 0 21
20 37 16 13 27 25 24 28 -3 3 -20 -7 -38 -22z"/>
<path d="M526 1802 c-7 -11 44 -52 65 -52 8 0 5 5 -6 13 -12 9 -15 19 -10 28
7 12 6 12 -7 1 -14 -11 -18 -10 -26 4 -6 10 -12 13 -16 6z"/>
<path d="M1939 1781 c-22 -18 -22 -21 -9 -35 14 -14 19 -14 47 4 22 13 31 25
27 35 -8 21 -37 19 -65 -4z m51 -1 c0 -10 -32 -30 -49 -30 -19 0 -12 17 12 28
28 14 37 14 37 2z"/>
<path d="M494 1738 c-10 -16 34 -50 60 -46 31 4 31 32 1 46 -33 15 -52 15 -61
0z m55 -12 c15 -8 20 -16 13 -20 -13 -8 -52 10 -52 24 0 13 10 12 39 -4z"/>
<path d="M1983 1724 c-33 -14 -47 -32 -16 -20 9 4 20 1 25 -6 6 -10 8 -8 8 5
0 20 11 22 28 5 13 -13 15 -8 6 16 -7 19 -9 19 -51 0z"/>
<path d="M461 1638 c-1 -23 68 -46 80 -27 13 21 11 35 -3 21 -17 -17 -28 -15
-29 6 0 10 -3 12 -6 5 -2 -7 -11 -13 -18 -13 -7 0 -16 6 -18 13 -4 7 -6 6 -6
-5z"/>
<path d="M2003 1640 c-32 -13 -29 -18 10 -15 47 4 47 4 47 15 0 12 -27 12 -57
0z"/>
<path d="M2003 1613 c-19 -7 -16 -23 5 -24 14 0 14 -2 -3 -9 -30 -13 6 -13 39
0 32 12 36 34 5 25 -12 -4 -24 -3 -28 2 -3 6 -12 8 -18 6z"/>
<path d="M446 1584 c-10 -27 -7 -29 38 -29 25 0 42 3 40 7 -3 5 -14 8 -24 8
-10 0 -25 7 -33 15 -13 13 -16 13 -21 -1z"/>
<path d="M2033 1553 c-18 -2 -33 -9 -33 -15 0 -6 10 -8 23 -4 12 3 30 6 40 6
9 0 17 5 17 10 0 6 -3 9 -7 8 -5 0 -23 -3 -40 -5z"/>
<path d="M445 1515 c6 -2 23 -6 38 -9 42 -10 22 -29 -22 -21 -27 5 -33 4 -25
-5 6 -6 27 -10 45 -8 26 2 34 8 34 23 0 16 -7 20 -40 22 -22 1 -35 1 -30 -2z"/>
<path d="M2020 1511 c-24 -7 -23 -8 10 -13 38 -6 60 -1 60 13 0 10 -34 10 -70
0z"/>
<path d="M2023 1483 c-7 -2 -13 -9 -13 -14 0 -12 39 -10 65 2 16 8 15 8 -8 4
-19 -4 -26 -2 -22 5 6 11 -1 12 -22 3z"/>
<path d="M428 1426 c-3 -14 -1 -26 3 -26 5 0 9 5 9 10 0 6 17 11 38 12 l37 1
-35 4 c-19 3 -38 9 -41 15 -4 5 -9 -2 -11 -16z"/>
<path d="M2010 1418 c0 -21 1 -21 14 -3 13 18 13 18 24 -1 10 -17 11 -17 12
-1 0 20 16 23 23 5 2 -7 8 -10 12 -6 15 14 -8 28 -46 28 -33 0 -39 -3 -39 -22z"/>
<path d="M430 1370 c0 -13 50 -13 70 0 11 7 4 10 -27 10 -24 0 -43 -4 -43 -10z"/>
<path d="M2014 1365 c-3 -8 -3 -19 1 -25 9 -15 35 -12 41 5 4 8 11 15 16 15 6
0 8 -7 4 -15 -6 -17 9 -21 20 -4 3 6 0 18 -9 26 -13 13 -17 12 -36 -8 -23 -24
-42 -19 -21 6 9 11 9 15 1 15 -6 0 -14 -7 -17 -15z"/>
<path d="M432 1315 c0 -16 2 -24 5 -17 2 6 18 12 33 12 16 0 32 5 36 11 5 9
-3 10 -29 5 -24 -5 -37 -3 -40 6 -3 7 -5 0 -5 -17z"/>
<path d="M2000 1310 c0 -4 10 -10 23 -14 31 -8 39 -7 33 3 -7 11 -56 21 -56
11z"/>
<path d="M480 1261 c-12 -24 -35 -29 -26 -6 3 8 1 15 -4 15 -14 0 -12 -37 2
-46 6 -4 20 4 33 20 12 14 24 23 28 20 4 -4 1 -14 -6 -22 -10 -13 -9 -14 3
-10 20 6 19 42 -2 46 -9 2 -22 -6 -28 -17z"/>
<path d="M1987 1213 c-4 -3 -7 -14 -7 -24 0 -33 82 -40 88 -7 3 15 -3 19 -59
34 -8 2 -18 1 -22 -3z m53 -23 c8 -5 12 -12 8 -15 -8 -8 -58 5 -58 16 0 12 31
11 50 -1z"/>
<path d="M478 1203 c-10 -2 -18 -9 -18 -14 0 -6 7 -6 19 1 25 13 34 13 26 0
-10 -16 11 -12 25 5 10 13 9 15 -11 14 -13 -1 -32 -3 -41 -6z"/>
<path d="M467 1161 c-10 -12 -6 -13 27 -8 52 8 65 23 21 23 -20 0 -41 -7 -48
-15z"/>
<path d="M1983 1136 c20 -16 8 -30 -17 -20 -9 3 -16 3 -16 0 0 -10 71 -38 78
-32 2 3 -3 8 -12 12 -22 9 -9 26 15 19 33 -11 21 5 -16 21 -43 18 -56 18 -32
0z"/>
<path d="M505 1125 c-40 -18 -16 -19 26 0 19 8 27 14 19 14 -8 0 -28 -6 -45
-14z"/>
<path d="M541 1073 c-18 -8 -31 -16 -28 -19 3 -3 16 0 29 7 l23 12 -24 -27
c-32 -35 -22 -42 26 -17 21 11 34 20 30 21 -5 0 -18 -5 -30 -11 -22 -11 -22
-11 1 14 29 31 18 39 -27 20z"/>
<path d="M1947 1070 c4 -15 0 -20 -13 -21 -11 -1 -1 -7 21 -14 63 -20 70 -4
16 35 -29 20 -29 20 -24 0z m28 -20 c3 -5 1 -10 -4 -10 -6 0 -11 5 -11 10 0 6
2 10 4 10 3 0 8 -4 11 -10z"/>
<path d="M577 993 c-25 -28 -26 -33 -10 -33 25 1 83 28 61 29 -9 1 -18 9 -20
19 -2 15 -8 12 -31 -15z m23 -7 c0 -3 -4 -8 -10 -11 -5 -3 -10 -1 -10 4 0 6 5
11 10 11 6 0 10 -2 10 -4z"/>
<path d="M1930 1000 l25 -20 -28 10 c-45 16 -52 0 -13 -26 42 -29 61 -32 26
-4 l-25 20 35 -6 35 -6 -28 26 c-15 14 -33 26 -40 26 -7 0 -1 -9 13 -20z"/>
<path d="M610 940 c-14 -10 -22 -21 -19 -24 2 -3 18 6 34 19 35 29 22 33 -15
5z"/>
<path d="M1853 944 c-4 -10 4 -24 23 -39 26 -21 31 -22 44 -9 13 14 12 18 -13
40 -33 28 -45 30 -54 8z m56 -24 c6 0 11 -5 11 -11 0 -6 -6 -8 -12 -5 -7 3
-21 9 -30 12 -19 7 -23 16 -11 28 4 4 13 0 19 -8 6 -9 16 -16 23 -16z"/>
<path d="M632 907 c-20 -21 -20 -25 -8 -43 14 -18 15 -18 45 10 23 23 28 33
20 43 -16 19 -33 16 -57 -10z m48 6 c0 -10 -32 -43 -42 -43 -14 0 -9 22 10 36
19 15 32 18 32 7z"/>
<path d="M1826 896 c3 -9 -2 -16 -12 -18 -15 -3 -14 -6 8 -20 35 -23 42 -25
46 -13 1 6 -2 11 -8 11 -5 1 -14 2 -20 3 -5 0 -10 6 -10 12 0 8 5 8 15 -1 18
-15 19 -1 1 23 -16 21 -27 22 -20 3z"/>
<path d="M682 857 c-27 -29 -29 -47 -3 -23 13 12 20 13 23 5 2 -6 9 0 16 15
15 34 -5 36 -36 3z"/>
<path d="M725 840 c-10 -11 -21 -17 -25 -15 -4 3 -10 -2 -14 -10 -3 -8 -2 -17
3 -19 9 -6 67 51 59 59 -2 3 -13 -4 -23 -15z"/>
<path d="M1761 846 c-14 -16 -4 -43 24 -66 13 -11 19 -11 32 3 14 14 14 18 -8
46 -28 35 -32 36 -48 17z m43 -31 c13 -19 13 -25 3 -25 -17 0 -37 20 -37 37 0
21 16 15 34 -12z"/>
<path d="M740 805 c-13 -14 -21 -27 -18 -30 2 -3 15 6 28 20 13 14 21 27 18
30 -2 3 -15 -6 -28 -20z"/>
<path d="M1438 2031 c-12 -17 -20 -19 -54 -11 -21 5 -64 10 -96 10 -51 0 -56
-2 -51 -20 3 -11 1 -20 -5 -20 -5 0 -13 11 -16 25 -4 14 -11 25 -16 25 -13 0
-13 -27 -1 -34 5 -3 7 -16 4 -29 -5 -18 -3 -20 8 -9 18 17 27 15 32 -5 3 -10
5 -1 6 20 1 27 5 37 17 37 13 0 15 -7 10 -35 -4 -22 -3 -35 4 -35 5 0 10 16
10 36 0 31 3 35 22 32 29 -4 35 -28 9 -35 -21 -5 -21 -7 -5 -24 9 -11 22 -19
28 -19 7 0 7 3 -1 11 -7 7 -7 17 1 35 11 25 40 31 66 14 12 -8 9 -10 -11 -10
-29 0 -46 -27 -29 -44 7 -7 10 -3 10 12 0 14 6 22 16 22 12 0 15 -7 12 -25 -3
-14 -2 -25 2 -25 4 0 10 14 14 30 3 17 10 30 16 30 13 0 13 -12 0 -44 -5 -15
-6 -26 -1 -26 5 0 12 14 16 30 4 17 13 30 20 30 21 0 28 -19 11 -26 -21 -8
-20 -26 3 -46 19 -16 21 -15 40 17 22 37 20 41 -26 60 -22 9 -33 21 -33 34 0
29 -16 35 -32 12z m22 -17 c0 -8 -4 -12 -10 -9 -5 3 -10 10 -10 16 0 5 5 9 10
9 6 0 10 -7 10 -16z m60 -75 c-11 -19 -22 -24 -32 -13 -8 7 25 42 35 37 4 -2
2 -13 -3 -24z"/>
<path d="M1142 2000 c-1 -27 5 -53 14 -65 16 -19 16 -19 8 5 -4 14 -11 43 -15
65 l-6 40 -1 -45z"/>
<path d="M987 1969 c-55 -28 -58 -31 -43 -48 20 -22 21 -41 2 -41 -8 0 -16 10
-18 22 -3 23 -28 38 -28 16 0 -7 9 -24 19 -38 16 -20 22 -22 35 -11 8 7 20 10
26 6 16 -10 12 4 -10 35 -18 25 -18 40 0 40 4 0 13 -13 20 -30 7 -16 16 -30
21 -30 5 0 2 14 -6 31 -9 17 -15 32 -13 34 2 1 13 8 26 14 20 11 26 10 38 -6
7 -10 14 -24 14 -30 0 -7 5 -13 10 -13 6 0 4 14 -4 34 -8 19 -12 37 -8 40 15
16 -29 2 -81 -25z"/>
<path d="M1017 1946 c-7 -16 1 -26 20 -26 7 0 13 9 13 20 0 23 -25 27 -33 6z"/>
<path d="M1608 1917 c17 -21 6 -40 -19 -32 -16 6 -17 3 -9 -22 6 -15 22 -33
36 -40 23 -11 29 -10 44 9 10 13 22 18 29 13 9 -5 5 -15 -15 -36 -32 -34 -21
-39 13 -7 l23 22 22 -22 c26 -26 16 -43 -11 -18 -15 14 -20 14 -29 3 -15 -18
4 -38 27 -30 13 5 13 2 -3 -15 -25 -29 -8 -28 24 1 34 29 41 101 12 116 -13 7
-22 7 -30 -1 -7 -7 -23 -1 -54 24 -24 19 -50 39 -58 43 -13 8 -13 6 -2 -8z
m53 -43 c11 -13 9 -14 -13 -9 -19 5 -29 2 -37 -12 -7 -12 -10 -13 -11 -4 0 13
27 40 41 41 4 0 12 -7 20 -16z m-11 -29 c0 -8 -4 -15 -9 -15 -13 0 -22 16 -14
24 11 11 23 6 23 -9z m108 -23 c4 -26 -6 -28 -24 -4 -18 24 -17 34 4 30 9 -2
18 -13 20 -26z"/>
<path d="M837 1869 c-20 -17 -42 -39 -47 -49 -8 -15 -6 -17 11 -13 18 5 20 3
14 -16 -5 -18 -3 -21 22 -20 20 0 23 2 11 7 -12 5 -15 11 -8 21 7 12 11 12 24
2 9 -8 16 -10 16 -6 0 4 -11 16 -25 27 -20 16 -23 23 -14 34 13 16 39 19 39 5
0 -5 -6 -11 -12 -13 -8 -3 -4 -10 11 -17 17 -9 26 -10 34 -2 8 8 6 11 -7 11
-15 0 -16 3 -6 15 10 12 10 15 -3 15 -9 0 -17 7 -19 15 -2 12 -11 9 -41 -16z
m3 -50 c0 -6 -4 -7 -10 -4 -5 3 -10 11 -10 16 0 6 5 7 10 4 6 -3 10 -11 10
-16z"/>
<path d="M1165 1868 c-123 -23 -257 -122 -317 -234 -96 -178 -70 -392 65 -540
94 -103 208 -154 347 -154 139 0 244 45 341 147 98 102 134 201 127 349 -3 84
-7 100 -46 177 -98 197 -299 297 -517 255z m65 -123 l0 -114 -37 -10 c-79 -22
-147 -107 -156 -195 -3 -32 -10 -42 -38 -58 -19 -11 -25 -16 -14 -12 50 16 52
16 63 -15 11 -30 10 -30 -56 -61 -37 -17 -81 -42 -99 -56 -17 -13 -34 -24 -37
-24 -5 0 -46 105 -46 119 0 13 140 84 180 91 21 4 -8 7 -70 7 -82 -1 -92 -2
-45 -6 l60 -6 -59 -32 c-33 -18 -61 -31 -64 -28 -11 11 -9 95 3 158 32 159
148 288 303 338 31 10 69 18 85 18 l27 1 0 -115z m227 74 c159 -76 259 -236
262 -417 0 -34 -2 -62 -5 -62 -3 0 -26 15 -51 33 l-46 32 44 6 c29 3 9 6 -59
7 -57 1 -107 4 -113 7 -5 4 -9 15 -9 26 0 59 -79 149 -150 170 l-40 12 0 115
0 115 52 -7 c29 -4 81 -21 115 -37z m-176 -260 c8 -15 14 -18 22 -10 18 18 27
12 27 -19 0 -49 -30 -71 -95 -66 -31 2 -56 -1 -58 -7 -1 -5 -16 2 -32 16 -18
15 -24 27 -16 27 8 0 20 -8 27 -17 7 -10 14 -13 14 -6 0 6 -4 15 -10 18 -5 3
-10 15 -10 27 0 15 5 19 20 15 13 -3 20 0 20 10 0 31 25 5 31 -33 3 -21 7 -30
8 -18 2 31 22 84 32 84 4 0 13 -9 20 -21z m89 -42 c0 -13 -6 -29 -12 -37 -7
-8 -4 -7 8 3 23 19 34 22 34 7 0 -13 -52 -37 -71 -33 -14 3 -14 8 4 43 21 45
37 52 37 17z m-94 -126 l-7 -57 28 1 c26 0 28 -3 31 -45 3 -45 3 -46 -37 -56
-24 -7 -45 -7 -56 -2 -9 6 -23 7 -31 4 -11 -4 -14 5 -14 39 0 59 1 60 33 59
15 -1 27 3 27 10 0 17 -29 93 -30 77 -1 -37 -80 -74 -80 -38 0 35 46 64 103
65 l39 1 -6 -58z m68 38 c31 -24 35 -59 7 -59 -21 0 -61 44 -61 66 0 20 23 17
54 -7z m274 -38 c20 -11 50 -31 66 -44 24 -19 28 -28 22 -51 -6 -26 -9 -27
-24 -14 -22 19 -127 78 -138 78 -5 0 26 -20 69 -45 45 -27 77 -52 77 -62 0 -8
-14 -40 -31 -70 l-32 -55 -78 78 c-43 43 -76 81 -73 86 3 4 1 8 -4 8 -6 0 -6
14 1 36 9 31 14 35 36 30 l26 -6 -28 15 c-15 9 -25 20 -22 25 11 17 94 11 133
-9z m-653 -172 c-37 -35 -70 -65 -75 -67 -5 -2 -13 6 -19 17 -9 16 -6 23 15
40 15 12 32 21 40 21 7 0 14 3 16 8 4 9 81 52 86 48 1 -2 -27 -32 -63 -67z
m155 16 c32 -34 119 -59 175 -51 23 4 63 20 88 36 l45 28 54 -57 c29 -31 64
-69 77 -84 l24 -26 -24 -21 c-86 -73 -169 -101 -305 -101 -87 0 -112 4 -167
27 -37 14 -87 44 -112 66 l-46 41 78 82 c43 45 81 83 84 84 3 0 16 -10 29 -24z"/>
<path d="M940 1340 c-9 -6 -10 -10 -3 -10 6 0 15 5 18 10 8 12 4 12 -15 0z"/>
<path d="M894 1314 c-18 -14 -18 -15 4 -4 12 6 22 13 22 15 0 8 -5 6 -26 -11z"/>
<path d="M844 1284 c-18 -14 -18 -15 4 -4 12 6 22 13 22 15 0 8 -5 6 -26 -11z"/>
<path d="M1190 1491 c0 -5 5 -13 10 -16 6 -3 10 -2 10 4 0 5 -4 13 -10 16 -5
3 -10 2 -10 -4z"/>
<path d="M1497 1279 c7 -7 15 -10 18 -7 3 3 -2 9 -12 12 -14 6 -15 5 -6 -5z"/>
<path d="M1537 1259 c7 -7 15 -10 18 -7 3 3 -2 9 -12 12 -14 6 -15 5 -6 -5z"/>
<path d="M1570 1246 c0 -3 9 -10 20 -16 11 -6 20 -8 20 -6 0 3 -9 10 -20 16
-11 6 -20 8 -20 6z"/>
<path d="M1620 1211 c0 -10 30 -24 37 -17 3 2 -5 9 -16 16 -12 6 -21 7 -21 1z"/>
<path d="M1320 1170 c0 -5 5 -10 11 -10 5 0 7 5 4 10 -3 6 -8 10 -11 10 -2 0
-4 -4 -4 -10z"/>
<path d="M1376 1125 c4 -8 10 -12 15 -9 11 6 2 24 -11 24 -5 0 -7 -7 -4 -15z"/>
<path d="M1350 1111 c0 -6 4 -13 10 -16 6 -3 7 1 4 9 -7 18 -14 21 -14 7z"/>
<path d="M1145 1080 c-3 -5 -1 -10 4 -10 6 0 11 5 11 10 0 6 -2 10 -4 10 -3 0
-8 -4 -11 -10z"/>
<path d="M1280 1059 c0 -5 5 -7 10 -4 6 3 10 8 10 11 0 2 -4 4 -10 4 -5 0 -10
-5 -10 -11z"/>
<path d="M1252 1040 c0 -14 2 -19 5 -12 2 6 2 18 0 25 -3 6 -5 1 -5 -13z"/>
<path d="M1280 1026 c0 -2 7 -7 16 -10 8 -3 12 -2 9 4 -6 10 -25 14 -25 6z"/>
<path d="M686 1741 c-19 -21 -20 -30 -3 -50 11 -13 10 -24 -7 -67 -12 -28 -26
-49 -32 -47 -15 5 -44 -24 -44 -44 0 -8 9 -17 20 -20 28 -7 25 -27 -5 -41 -25
-11 -34 -32 -15 -32 6 0 10 5 10 10 0 6 7 10 15 10 23 0 14 -96 -10 -114 -12
-9 -16 -19 -11 -32 6 -15 9 -16 16 -4 6 9 5 18 -3 23 -8 6 -8 7 3 4 8 -2 19
-21 24 -43 5 -21 10 -40 11 -42 1 -1 15 3 31 9 16 7 36 11 44 10 13 -3 12 0
-1 15 -9 11 -15 24 -13 30 3 6 -9 8 -31 6 -21 -3 -35 0 -35 7 0 6 16 11 35 11
19 0 35 4 35 9 0 6 -16 7 -35 4 -32 -5 -35 -4 -34 18 0 13 3 19 5 13 3 -6 15
-9 28 -7 17 4 25 13 28 34 4 27 2 29 -29 29 -20 0 -33 5 -33 13 0 9 12 12 38
10 l37 -2 -37 10 c-49 14 -50 34 -3 26 21 -3 33 -2 30 4 -4 5 -17 9 -31 9 -19
0 -24 5 -24 25 0 30 16 33 23 4 6 -24 30 -21 35 4 2 11 -6 21 -24 27 -37 14
-23 25 15 12 17 -6 31 -7 31 -2 0 5 -14 11 -30 15 -26 6 -30 10 -24 28 3 12
11 27 17 32 7 7 8 6 3 -2 -8 -15 3 -43 18 -43 6 0 19 9 29 20 16 19 15 20 -4
31 -16 8 -18 14 -10 22 9 9 14 8 21 -3 7 -11 10 -11 10 -2 0 22 -32 27 -46 7
-8 -10 -14 -14 -14 -8 0 6 8 21 18 33 18 22 19 22 48 5 l29 -18 -30 29 c-36
35 -66 40 -89 15z m34 -21 c-9 -17 -40 -29 -40 -16 0 18 15 36 31 36 17 0 18
-3 9 -20z m20 -79 c0 -6 -4 -13 -10 -16 -5 -3 -10 1 -10 9 0 9 5 16 10 16 6 0
10 -4 10 -9z m-90 -96 c0 -16 -6 -25 -15 -25 -15 0 -21 31 -8 43 13 14 23 6
23 -18z m34 -121 c19 -7 22 -33 4 -30 -19 3 -38 16 -38 27 0 10 12 12 34 3z
m11 -135 c0 -7 -8 -15 -17 -17 -18 -3 -25 18 -11 32 10 10 28 1 28 -15z"/>
<path d="M1810 1707 c-62 -33 -71 -39 -67 -44 3 -2 18 2 35 11 28 15 30 14 41
-10 15 -34 13 -43 -4 -20 -19 25 -45 14 -43 -19 3 -28 10 -30 40 -14 16 9 23
8 29 -2 13 -21 11 -29 -5 -23 -8 3 -24 1 -35 -6 -17 -8 -19 -15 -11 -29 5 -10
6 -22 2 -26 -4 -4 10 -5 31 -1 46 9 50 -9 5 -24 l-33 -10 38 4 c27 4 37 1 37
-10 0 -8 -10 -14 -25 -14 -15 0 -25 -6 -25 -14 0 -8 -2 -21 -5 -28 -4 -11 3
-13 31 -10 28 3 35 1 32 -9 -3 -8 -19 -14 -36 -14 -18 0 -32 -3 -32 -7 0 -5
14 -8 30 -8 27 0 30 -3 29 -32 0 -29 -1 -30 -9 -12 -12 30 -28 38 -45 24 -29
-24 -5 -73 26 -54 6 3 16 0 24 -6 12 -10 15 -8 15 11 0 41 12 68 31 74 33 11
22 41 -13 36 -4 0 -10 21 -13 47 -4 26 -13 72 -21 103 -11 43 -11 62 -2 86 9
25 9 35 -1 47 -16 19 -19 19 -51 3z m44 -16 c4 -5 3 -17 -1 -27 -6 -16 -7 -16
-20 2 -7 10 -13 21 -13 26 0 11 27 10 34 -1z m-46 -59 c2 -7 -3 -12 -12 -12
-9 0 -16 7 -16 16 0 17 22 14 28 -4z m44 -84 c-13 -13 -44 -7 -50 11 -3 8 0
11 7 7 6 -4 11 -2 11 4 0 8 6 7 21 -1 14 -7 18 -14 11 -21z m18 -103 c0 -8 -9
-15 -20 -15 -11 0 -20 7 -20 15 0 8 9 15 20 15 11 0 20 -7 20 -15z m45 -45
c-3 -5 -10 -10 -16 -10 -5 0 -9 5 -9 10 0 6 7 10 16 10 8 0 12 -4 9 -10z m-71
-58 c2 -4 1 -14 -4 -22 -7 -11 -12 -12 -21 -3 -6 6 -8 16 -5 22 8 13 23 14 30
3z"/>
<path d="M1774 1272 c11 -17 82 -36 103 -27 14 7 7 10 -27 15 -25 4 -54 11
-64 15 -14 6 -17 5 -12 -3z"/>
<path d="M708 1197 c-32 -13 -33 -18 -12 -58 14 -28 14 -32 0 -48 -20 -22 -1
-48 21 -29 11 9 18 6 31 -13 9 -13 39 -48 66 -77 47 -50 51 -52 58 -32 4 12
12 18 18 15 7 -4 7 -12 0 -25 -14 -25 -13 -30 6 -30 10 0 14 5 10 15 -3 9 1
18 9 21 20 8 19 24 -1 24 -11 0 -14 6 -9 23 5 20 3 19 -18 -7 -15 -17 -30 -26
-37 -21 -8 5 -3 16 16 36 15 16 23 29 17 29 -6 0 -18 -12 -28 -26 -16 -25 -17
-25 -36 -8 -26 24 -24 37 6 30 22 -6 25 -3 25 19 0 14 -4 25 -10 25 -5 0 -10
-3 -10 -8 0 -4 -10 -13 -22 -21 -19 -12 -23 -11 -39 10 -25 32 -24 47 1 24 16
-15 22 -15 35 -5 8 7 15 17 15 23 0 6 -6 2 -14 -9 -12 -16 -17 -17 -28 -6 -11
11 -10 16 6 28 11 7 17 16 14 19 -3 3 -16 -4 -30 -15 -23 -17 -38 -18 -38 0 0
3 14 14 31 24 17 10 28 20 26 23 -3 2 -17 -3 -31 -12 -25 -17 -46 -14 -46 7 0
5 6 8 14 5 20 -8 36 15 29 41 -6 24 -6 24 -45 9z m32 -20 c0 -7 -9 -13 -20
-14 -22 -2 -27 12 -7 20 21 9 27 8 27 -6z m-20 -97 c0 -5 -4 -10 -10 -10 -5 0
-10 5 -10 10 0 6 5 10 10 10 6 0 10 -4 10 -10z"/>
<path d="M1758 1171 c-17 -20 -16 -21 12 -36 35 -18 36 -22 11 -54 -18 -24
-20 -24 -45 -8 -37 25 -46 21 -12 -6 26 -21 27 -25 15 -45 -17 -27 -34 -30
-20 -3 16 29 -15 43 -49 21 -12 -7 -11 -13 9 -34 31 -33 19 -47 -14 -16 -14
13 -27 21 -30 18 -3 -2 6 -15 20 -28 l24 -23 -23 -18 c-32 -25 -44 -24 -21 1
17 19 17 22 3 37 -11 10 -23 13 -35 8 -10 -5 -24 -7 -32 -6 -11 2 -10 -1 2
-14 18 -18 32 -20 32 -5 0 18 20 16 23 -2 2 -10 -1 -18 -7 -18 -13 0 -14 -10
-1 -30 8 -12 21 -4 71 45 34 33 77 85 97 115 20 30 43 60 51 67 14 10 14 13 1
27 -26 26 -63 29 -82 7z m32 -2 c0 -6 7 -9 15 -5 9 3 15 0 15 -8 0 -20 -11
-26 -31 -15 -20 10 -26 39 -9 39 6 0 10 -5 10 -11z m-86 -144 c-4 -8 -8 -15
-10 -15 -2 0 -4 7 -4 15 0 8 4 15 10 15 5 0 7 -7 4 -15z"/>
<path d="M1735 1110 c-8 -13 14 -42 26 -34 5 3 9 14 9 25 0 20 -24 26 -35 9z
m25 -10 c0 -5 -2 -10 -4 -10 -3 0 -8 5 -11 10 -3 6 -1 10 4 10 6 0 11 -4 11
-10z"/>
<path d="M1016 884 c-3 -8 -10 -12 -16 -9 -5 3 -10 1 -10 -4 0 -6 5 -11 11
-11 6 0 9 -9 6 -20 -4 -16 -2 -18 12 -10 12 6 22 5 31 -3 10 -10 11 -7 5 11
-4 13 -2 22 4 22 6 0 11 5 11 11 0 5 -5 7 -10 4 -6 -3 -13 1 -16 9 -3 9 -10
16 -14 16 -4 0 -11 -7 -14 -16z"/>
<path d="M1496 884 c-3 -8 -10 -12 -16 -9 -5 3 -10 1 -10 -4 0 -6 5 -11 11
-11 6 0 8 -9 3 -22 -6 -20 -5 -21 10 -9 13 11 19 11 32 0 15 -12 16 -11 10 9
-5 13 -3 22 3 22 6 0 11 5 11 11 0 5 -5 7 -10 4 -6 -3 -13 1 -16 9 -3 9 -10
16 -14 16 -4 0 -11 -7 -14 -16z"/>
<path d="M1347 873 c-10 -9 -8 -55 2 -72 12 -19 41 -6 41 19 0 14 -7 20 -21
20 -12 0 -19 5 -16 13 2 6 10 11 16 9 7 -1 10 2 6 8 -7 12 -19 13 -28 3z m33
-58 c0 -8 -4 -15 -10 -15 -5 0 -10 7 -10 15 0 8 5 15 10 15 6 0 10 -7 10 -15z"/>
<path d="M1153 828 c-1 -35 0 -39 7 -18 11 34 12 60 2 60 -5 0 -9 -19 -9 -42z"/>
<path d="M1207 863 c-13 -12 -7 -44 8 -49 8 -4 15 -11 15 -16 0 -6 -7 -8 -15
-4 -8 3 -15 1 -15 -4 0 -19 39 -10 45 11 14 42 -14 87 -38 62z m26 -36 c-3 -5
-10 -4 -15 1 -6 6 -7 16 -3 22 6 9 9 9 16 -1 4 -7 5 -17 2 -22z"/>
<path d="M1277 863 c-14 -13 -6 -25 8 -13 21 18 20 -12 -1 -45 -16 -25 -16
-25 12 -24 21 0 24 2 12 7 -13 5 -15 11 -8 22 22 35 2 79 -23 53z"/>
<path d="M966 624 c-49 -7 -92 -17 -95 -20 -3 -4 11 -4 32 0 36 7 52 -6 22
-18 -8 -3 -12 -12 -9 -20 3 -8 1 -17 -5 -21 -6 -3 -14 1 -17 9 -3 9 -11 16
-17 16 -5 0 -2 -9 8 -20 24 -27 31 -25 43 8 l10 27 1 -34 c1 -45 16 -30 16 17
0 52 23 53 28 0 l4 -43 1 48 c2 35 6 47 18 47 12 0 14 -7 9 -30 -4 -20 -3 -30
5 -30 9 0 9 -5 -1 -17 -13 -16 -12 -17 3 -5 9 8 22 11 27 8 6 -4 11 11 13 36
3 40 5 43 36 46 36 4 45 -15 10 -20 -28 -4 -36 -39 -13 -58 9 -8 15 -8 15 -2
0 6 -4 14 -10 17 -17 11 -11 35 9 35 15 0 21 -8 23 -32 3 -26 5 -21 8 20 l5
52 -45 -1 c-25 0 -85 -7 -134 -15z m84 -28 c0 -14 -4 -28 -10 -31 -6 -4 -10 7
-10 24 0 17 5 31 10 31 6 0 10 -11 10 -24z"/>
<path d="M1218 615 c2 -14 9 -28 14 -31 5 -3 3 -13 -4 -22 -12 -14 -10 -14 10
-3 14 7 22 8 22 1 0 -5 3 -10 8 -10 4 0 7 16 7 37 0 53 23 54 28 1 l4 -43 1
43 c2 47 19 57 24 15 2 -21 8 -28 25 -28 13 0 28 -6 34 -12 6 -6 18 -9 25 -6
8 3 15 -1 16 -8 0 -8 4 6 7 31 7 56 3 58 -104 59 -77 1 -81 0 -80 -21 0 -13
-4 -23 -10 -23 -5 0 -10 10 -10 23 1 12 -4 22 -11 22 -7 0 -9 -10 -6 -25z
m172 1 c0 -18 -27 -39 -40 -31 -5 3 -10 15 -10 26 0 14 7 19 25 19 15 0 25 -6
25 -14z m40 -16 c0 -11 -7 -23 -15 -27 -21 -8 -30 3 -17 20 7 8 9 17 5 20 -3
4 1 7 10 7 10 0 17 -8 17 -20z"/>
<path d="M1529 611 c14 -4 25 -15 27 -28 4 -26 -13 -40 -29 -24 -9 9 -8 14 3
21 8 5 12 11 9 14 -2 3 -11 1 -18 -4 -18 -11 -6 -40 19 -47 11 -3 17 -9 14
-14 -3 -5 -1 -9 5 -9 5 0 9 17 8 37 -1 27 2 39 13 40 22 4 44 -13 35 -26 -5
-9 -11 -9 -23 1 -8 7 -13 9 -11 3 19 -42 34 -65 42 -65 5 0 5 6 -2 13 -8 10
-7 21 2 40 18 39 27 33 29 -20 l1 -48 4 43 c5 56 26 51 34 -9 l6 -44 1 44 c2
42 3 43 30 37 26 -7 57 -35 47 -44 -3 -3 -14 3 -24 12 -11 10 -26 16 -33 13
-8 -4 -5 -8 10 -12 24 -8 29 -21 10 -27 -7 -3 -8 -10 -3 -17 6 -11 10 -10 17
3 11 20 30 12 21 -9 -3 -8 -1 -15 5 -15 6 0 9 19 9 42 -2 33 -9 49 -35 75 -36
36 -56 41 -70 18 -7 -14 -16 -14 -81 0 -72 15 -118 19 -72 6z m206 -21 c20
-23 17 -24 -20 -10 -14 5 -23 14 -20 20 9 15 20 12 40 -10z"/>
<path d="M683 556 c-89 -29 -103 -32 -116 -19 -12 12 -19 13 -36 4 -11 -7 -21
-17 -21 -23 0 -9 3 -9 12 0 14 14 48 16 48 3 0 -5 -13 -12 -30 -16 -37 -8 -37
-9 -29 -65 l6 -45 1 47 c2 44 4 47 38 58 43 15 56 7 16 -9 -23 -10 -28 -17
-24 -37 2 -13 9 -27 14 -30 5 -3 6 5 3 18 -4 16 -1 29 9 37 17 14 19 11 29
-34 3 -11 5 1 6 28 0 26 6 47 11 47 6 0 10 -8 10 -18 0 -26 11 -34 26 -21 10
8 18 7 29 -5 13 -12 21 -13 36 -6 10 6 19 16 19 22 0 7 5 6 15 -2 18 -15 19
-7 3 20 -11 17 -10 22 2 30 24 15 29 12 32 -22 3 -26 5 -21 8 20 3 31 1 52 -5
52 -5 -1 -56 -16 -112 -34z m107 17 c0 -5 -14 -16 -31 -26 -19 -10 -29 -23
-26 -31 3 -8 -2 -21 -12 -30 -17 -15 -19 -15 -32 0 -11 14 -11 18 6 30 10 8
22 14 27 14 4 0 8 6 8 14 0 12 19 23 58 35 1 1 2 -2 2 -6z m-91 -41 c-28 -20
-41 -21 -46 -6 -3 10 57 35 66 27 3 -2 -6 -11 -20 -21z m-39 -32 c0 -5 -4 -10
-10 -10 -5 0 -10 5 -10 10 0 6 5 10 10 10 6 0 10 -4 10 -10z"/>
<path d="M1860 560 c6 -11 13 -20 16 -20 2 0 0 9 -6 20 -6 11 -13 20 -16 20
-2 0 0 -9 6 -20z"/>
<path d="M1823 537 c27 -11 37 -40 17 -52 -18 -11 -32 6 -18 23 11 13 11 14
-2 10 -22 -7 -18 -32 7 -43 12 -5 24 -16 27 -25 2 -8 4 4 5 28 1 58 21 53 22
-5 l2 -48 7 45 c4 25 6 47 4 49 -7 7 -78 31 -89 30 -5 -1 2 -6 18 -12z"/>
<path d="M1916 502 c-9 -16 10 -65 30 -76 10 -6 22 -15 26 -21 4 -5 8 7 8 28
0 40 5 43 45 25 32 -14 32 -27 0 -20 -29 5 -33 -14 -9 -44 14 -18 15 -18 4 4
-13 28 -9 35 14 26 10 -4 16 -18 16 -37 0 -41 6 -31 13 20 l5 41 -48 21 c-60
26 -58 26 -53 -3 5 -25 -10 -42 -28 -30 -8 4 -7 9 2 15 11 8 11 11 -3 20 -10
5 -18 15 -18 22 0 7 4 6 10 -3 5 -8 12 -11 15 -8 8 8 -3 28 -15 28 -5 0 -11
-4 -14 -8z"/>
<path d="M445 461 c-22 -11 -36 -20 -32 -20 5 -1 17 4 29 10 24 13 35 5 19
-15 -9 -11 -8 -15 5 -20 13 -5 14 -9 4 -21 -11 -14 -15 -14 -31 1 -11 10 -21
15 -24 12 -3 -3 4 -13 15 -23 19 -18 22 -18 38 -2 10 10 17 33 17 57 0 22 0
40 0 40 0 0 -18 -9 -40 -19z"/>
</g>
</svg>
