<svg id="Layer_1" data-name="Layer 1" xmlns="http://www.w3.org/2000/svg" viewBox="0 0 375.33 300"><defs><style>.cls-1{fill:#fff;}.cls-2{fill:#acacac;}.cls-3{fill:#b0b0b0;}.cls-4{fill:#373737;}.cls-5{fill:none;}</style></defs><path class="cls-1" d="M19.75,213s-1.23-5.33-1.17-6.05,22.21,7.88,22.21,7.88l39.35-1.23,37.91-5,38.71,2.25,24,9.16,21.66-2.39,19.29-6.35,45.88-2.53s39.83,2.17,40.05,2.38S342,212.62,342,212.62l17.12-7.36-.55,1.12s-1.47,3.28-2.68,5.48L354.8,214l-8.2,6.51s-22.29,7.16-22.65,7.2S311.44,230,311.44,230s-24.84.15-25.13,0-38.78-4.18-38.78-4.18l-41.59,3.25s-16.95,3.61-17.1,3.68-13.09.43-13.38.36-50-8.52-50-8.52l-25.7,3.18s-28.41,4.54-28.9,4.54-28-3.89-28-3.89L24.61,218Z"/><path d="M0,169.78c2.15.57,4.12,1.63,6.26,2.26,5.49,1.6,10.93.82,16.37-.18s10.94-2.48,16.48-3.44a39.9,39.9,0,0,1,24,3.45,55.52,55.52,0,0,1,6.62,3.46,2,2,0,0,0,2.19.07,53.19,53.19,0,0,1,17.75-5.74c5.47-.68,10.78.19,16,1.54,5.75,1.47,11.35,3.44,17.16,4.73a29.43,29.43,0,0,0,17.49-1.06c.4-.15.89-.63,1.29-.15s-.06.82-.2,1.19c-2.08,5.51-6.34,8.37-11.88,9.44-8,1.55-15.68-.21-23.14-3.14-3.45-1.36-6.85-3-10.58-3.32-9-.75-17.58.58-24.69,6.86-.58.51-.82.51-1.36-.06-4.92-5.21-11.32-7.2-18.15-8.28-5.47-.86-10.64.31-15.75,2.09a48.39,48.39,0,0,1-17.46,2.95c-4.33-.12-8.53-.9-12.27-3.34A13.93,13.93,0,0,1,.5,171.86c-.13-.38-.08-.86-.5-1.13Z"/><path class="cls-2" d="M367.78,195.68a12.69,12.69,0,0,1-3.5,5.77C358.89,207.25,352.16,211,345,214a66.3,66.3,0,0,1-28.82,5.41c-9-.38-18-1.27-26.92-2.37-8.21-1-16.4-2.06-24.65-2.75a173.39,173.39,0,0,0-21.62-.51c-18,.78-35.67,3.35-52.48,10.16a6.59,6.59,0,0,1-5.61,0c-9.68-4.06-19.84-6.39-30.18-8a186,186,0,0,0-34.24-2.19c-8.17.23-16.28,1.12-24.39,2.09-7.89.95-15.77,2-23.69,2.72a150.69,150.69,0,0,1-17,.87,68.11,68.11,0,0,1-40.75-14.6,23.1,23.1,0,0,1-6.22-7,5.41,5.41,0,0,1-.86-2.19l.14-.15C15.74,202.82,25.62,206,36,208c11.19,2.14,22.46,2,33.76,1.07s22.73-2.67,34.11-3.84a188.2,188.2,0,0,1,24.78-1.27c18.53.53,36.79,2.8,54.2,9.54a11.8,11.8,0,0,0,9.65,0c10.1-4.13,20.75-6.27,31.54-7.76a185,185,0,0,1,27.91-1.78,251.44,251.44,0,0,1,26.15,2c9,1.07,18,2.28,27,3a157.19,157.19,0,0,0,20.35.53c10.88-.5,21.47-2.42,31.47-7a42,42,0,0,0,10.72-7Z"/><path d="M19.54,212.08c8.76,8.69,19.87,12,31.61,13.76,11.29,1.72,22.55.81,33.8-.52,11.7-1.38,23.32-3.39,35.08-4.16a173.94,173.94,0,0,1,32.58,1.07,122.49,122.49,0,0,1,28.29,6.46c2,.74,3.91,1.62,5.84,2.49a1.85,1.85,0,0,0,1.77,0c9-4.36,18.54-6.6,28.29-8.19a178.12,178.12,0,0,1,29.18-2.2,213.09,213.09,0,0,1,27.74,2.3c13,1.75,25.95,3.86,39.11,3.62,11.13-.21,21.94-2.06,32.08-6.94a35.43,35.43,0,0,0,11-7.95A18.62,18.62,0,0,1,354,216a34.39,34.39,0,0,1-9.67,9.56,61.47,61.47,0,0,1-40.44,11c-11.22-.85-22.35-2.43-33.5-3.93a184,184,0,0,0-44.3-.84C214.81,233,203.68,235,193,239.19c-1.82.71-3.6,2.12-5.4,2.11s-3.58-1.41-5.4-2.13c-9.28-3.68-19-5.64-28.83-6.91a179.86,179.86,0,0,0-29.71-1.32c-8.77.33-17.44,1.53-26.12,2.7-11.51,1.56-23,3.49-34.69,3-14.64-.64-27.35-6.26-38.08-16.23C21.67,217.48,20,214.53,19.54,212.08Z"/><path d="M189.7,136.88c1.2-1.69,2.37-3.19,3.38-4.79,3-4.75,3.49-10,3-15.47-.49-5.59-1.21-11.16-1.67-16.75-.83-9.88,2.89-18.13,9.35-25.35,1.34-1.5,2.71-3,4.17-4.38a1.64,1.64,0,0,0,.38-2.2,47.75,47.75,0,0,1-4.15-16.06,29.83,29.83,0,0,1,3-14.63c2.29-4.91,5.23-9.46,7.85-14.19a64.56,64.56,0,0,0,3.08-6.45,21.58,21.58,0,0,0,.69-15.08c-.13-.44-.54-1-.17-1.34s1,.06,1.42.26c8.23,3.65,11.7,11.27,9.44,20.69a39.49,39.49,0,0,1-7,14.52c-.95,1.27-1.86,2.57-2.8,3.85-4.55,6.15-5.18,13.07-3.9,20.31a21.42,21.42,0,0,0,5.3,11c.54.59.56.81-.21,1.21-8,4.2-12.32,11.07-14.22,19.66-.9,4-.09,8,.9,11.94,1.63,6.52,2.14,13.06.41,19.64C205.77,132,198.49,137.4,189.7,136.88Z"/><path d="M185.51,136.89c-9.11.54-16.46-5.32-18.53-14.82a38.39,38.39,0,0,1,.47-17.32c.64-2.68,1.47-5.34,1.44-8.12-.12-10.81-4.91-19-14.24-24.41-1-.57-1-.78-.28-1.61,3.55-4,5.08-8.84,5.58-14.08a26,26,0,0,0-6.22-19.61,39.12,39.12,0,0,1-8.31-17.48c-1.61-8.4,2.36-16,10.09-19.12.36-.15.76-.54,1.15-.14.24.24.08.6,0,.9-2.81,7.92-.28,15,3.53,21.84,2.4,4.31,5,8.53,7.26,12.89,4.22,8,4.72,16.24,2.21,24.81A52.22,52.22,0,0,1,167,67.93a1.74,1.74,0,0,0,.5,2.32c4.59,4.47,8.66,9.33,11.22,15.29A31.19,31.19,0,0,1,180.79,101c-.51,5.49-1.22,11-1.65,16.44-.52,6.76,1,13,5.58,18.18.28.31.52.67.77,1A1.12,1.12,0,0,1,185.51,136.89Z"/><path d="M173.08,139.35c-6.12,2.75-14,1.22-18.94-3.61s-7.51-11.09-8.84-17.81c-.83-4.2-.66-8.64-2.49-12.58C138.36,95.72,130.76,90,120.24,88a18.38,18.38,0,0,0,1.74-7.7c-.17-9.69-3.57-17.77-11.89-23.34-4.28-2.86-8.48-5.83-11.87-9.79s-6.06-8.39-6.65-13.81c-.5-4.55,2.54-10.87,6.74-13.28.18,1.73.23,3.41.56,5a23.24,23.24,0,0,0,6.31,11.4,135.88,135.88,0,0,0,13.06,11.64c9.17,7.53,13.74,17.15,13.25,28.93-.16,3.77.88,5.63,4.36,7.21a37,37,0,0,1,14.94,11.84c3.27,4.5,4.91,9.71,6.27,15,1.11,4.31,2.1,8.64,3.45,12.89a24.59,24.59,0,0,0,11.37,14.55C172.24,138.77,172.58,139,173.08,139.35Z"/><path d="M202.39,139.29c1.31-.9,2.64-1.75,3.92-2.68a22.8,22.8,0,0,0,7.84-10.77A133.33,133.33,0,0,0,218.8,109c2.67-11.29,9.58-19,19.62-24.3,1.36-.72,2.71-1.47,4.12-2.07a1.77,1.77,0,0,0,1.26-2,48.36,48.36,0,0,1,1.64-16.06c1.91-6.65,6.28-11.58,11.28-16.05,4.39-3.93,9.09-7.5,13.19-11.75,3.6-3.72,6.13-8,6.79-13.19.14-1.09.21-2.2.32-3.41a3.29,3.29,0,0,1,1.82,1.18c5,4.76,6.28,11.59,3.32,18.11-2.66,5.86-7,10.32-12.08,14.11-2.38,1.77-4.88,3.39-7.22,5.21-5.6,4.37-8.13,10.42-9.26,17.21a21,21,0,0,0,1.49,12c-10.44,2-18,7.69-22.52,17.2-1.59,3.34-1.67,7.09-2.21,10.69-1.12,7.45-3.52,14.36-9.05,19.73-5.23,5.06-11.5,6.2-18.42,4.14a.76.76,0,0,1-.28-.15A2.59,2.59,0,0,1,202.39,139.29Z"/><path d="M57.44,49.37a33.77,33.77,0,0,0,3.75,7.51c3,4.26,7.45,6.73,11.92,9.07,4.23,2.2,8.54,4.26,12.85,6.31C96.2,77.14,102.3,85.39,105,96.16c.78,3.06,2,4.39,5.16,5a40.36,40.36,0,0,1,18.1,7.75c4.77,3.75,7.92,8.8,10.9,14,2.22,3.86,4.42,7.72,7,11.38a25.27,25.27,0,0,0,14.62,10.06c.19.05.38.12.86.28a16.63,16.63,0,0,1-8.3,3.24c-8.09.87-13.89-3.19-18.86-8.91a46.72,46.72,0,0,1-7.42-12.72,29.12,29.12,0,0,0-27.76-17.6c-2.11.07-2,.08-1.93-2a23.47,23.47,0,0,0-3.63-12.66,27.41,27.41,0,0,0-16-12.76,44.86,44.86,0,0,1-16.56-8.88c-4.47-4-7.62-8.58-7-14.92A15.22,15.22,0,0,1,57.44,49.37Z"/><path d="M317.87,49.57c4.07,4.48,4.44,11.77,1.06,17.21-2.71,4.37-6.69,7.3-11,9.91s-9,3.74-13.44,5.72c-9.89,4.39-15.14,12.2-16.59,22.75a6.15,6.15,0,0,0,0,1c.09,2.5.09,2.5-2.37,2.44a29.21,29.21,0,0,0-27.28,17.64,48.13,48.13,0,0,1-7.42,12.72c-3.59,4.21-7.78,7.54-13.34,8.69a17.62,17.62,0,0,1-13.59-2.81c.22-.66.75-.52,1.11-.62a25.85,25.85,0,0,0,14.9-11c2.55-3.85,4.94-7.8,7.1-11.87,5.8-11,14.91-17.38,26.88-20a34.73,34.73,0,0,1,3.88-.81c1.19-.12,1.54-.71,1.79-1.76,1.53-6.47,3.95-12.53,8.22-17.73,3-3.64,6.84-6.16,10.9-8.39,5.21-2.85,10.76-5,15.93-8,4.6-2.6,8.77-5.63,11.2-10.5C316.53,52.71,317.14,51.19,317.87,49.57Z"/><path d="M151.93,153.29c-3.31,3.62-7,5.64-11.57,6-6.89.49-12.52-2.51-17.77-6.57-3.82-3-6.79-6.71-9.74-10.46-4.24-5.39-10-8-16.52-9.38a25.92,25.92,0,0,0-14.72.73c-.55.2-.86.24-1-.48-1.59-8.48-7.2-13.81-14.2-18-4-2.39-8.51-2.82-13-3.28-7.81-.81-15.24-2.72-21.57-7.67a14.8,14.8,0,0,1-5.1-17.06c.07-.19.18-.37.27-.56.57,0,.68.52.89.83,3.62,5.37,8.77,8.43,14.91,10.17,5.67,1.61,11.44,2.7,17.19,3.9,12,2.49,20.18,9.67,25.87,20.09a3.38,3.38,0,0,0,3.67,2.09,49.82,49.82,0,0,1,18.23,2.1c6.13,2,10.88,6.07,15.41,10.44,3.55,3.43,6.9,7.05,10.62,10.31a26.59,26.59,0,0,0,16.77,6.74C150.9,153.2,151.21,153.24,151.93,153.29Z"/><path d="M348.09,86.18c3,6.24,1.05,13.46-4.5,17.87s-12,6.42-18.86,7.42c-2.63.37-5.26.62-7.89,1-9.74,1.34-19.77,10.22-21.93,19.4a3.9,3.9,0,0,0-.18.94c0,.91-.32,1-1.18.73-10.09-3-19.29-.92-27.64,5.2-2.92,2.15-4.81,5.36-7.17,8.08-4.85,5.59-10.44,10.14-17.8,12a16.94,16.94,0,0,1-15.65-3.56,4.52,4.52,0,0,1-1.61-1.87c2.23-.36,4.43-.43,6.59-.89,5.12-1.1,9.2-4,12.91-7.48,4-3.7,7.78-7.54,11.65-11.32,6.84-6.66,15.18-9.69,24.59-10,2.39-.09,4.78-.12,7.17,0a2.27,2.27,0,0,0,2.46-1.43,45.37,45.37,0,0,1,11.05-13.84c5-4.15,11.06-6,17.25-7.36,3.46-.78,6.94-1.47,10.41-2.23C335.93,97,343.51,94.19,348.09,86.18Z"/><path d="M229.66,163.26c1.8.19,3.42.38,5,.52a27,27,0,0,0,14-2.85c4.53-2.13,8.78-4.72,13.15-7.13,4.66-2.57,9.44-4.82,14.76-5.7,5.84-1,11.61-.35,17.36.78a4.87,4.87,0,0,1,1.24.26c3.18,1.56,5.32.38,7.77-2,6-5.78,13.06-9.76,21.54-10.69a86.85,86.85,0,0,1,14.15-.29,65.67,65.67,0,0,0,17.26-.92,24,24,0,0,0,9.73-4.9c.34-.26.69-.87,1.18-.59s.22.87.23,1.33c.1,6.17-3.58,11.18-10.19,13.74a41,41,0,0,1-19.89,2.1c-6.86-.81-13.6-1.34-20.15,1.66-5.56,2.56-10.53,5.74-13.43,11.39-.32.63-.61.69-1.22.34-8-4.53-16.38-4.53-25-2.34-4,1-7.22,3.53-10.5,5.87a42.22,42.22,0,0,1-17.62,7.69c-6,1-11.53.12-16.22-4.05A13.38,13.38,0,0,1,229.66,163.26Z"/><path d="M146.07,162.89A15.56,15.56,0,0,1,135.34,171c-6.57,1.42-12.69-.3-18.66-3-3.81-1.71-7.07-4.26-10.54-6.52-10.46-6.82-21.31-7.11-32.42-1.67-.54.27-1,.64-1.4-.19C68.48,152.51,62,149,54.55,146.77c-4.44-1.36-8.92-1-13.41-.41-7.39.92-14.71.91-21.81-1.74-4.21-1.57-7.71-4-9.63-8.27a12.68,12.68,0,0,1-1.1-5.89c0-.39-.18-.93.34-1.11s.66.27.94.49a23.65,23.65,0,0,0,9.84,5,61.81,61.81,0,0,0,15.19,1c7.2-.27,14.44-.64,21.51,1.28,5.81,1.57,10.73,4.76,15.26,8.6a46.89,46.89,0,0,1,3.5,3.25,2,2,0,0,0,2.27.58,59.34,59.34,0,0,1,15.83-2.35c6.58-.05,12.61,2,18.37,5,5.12,2.68,10,5.88,15.25,8.25C133.84,163.6,137,164,146.07,162.89Z"/><path d="M375.33,169.81a13.78,13.78,0,0,1-7.46,10.05c-4.67,2.44-9.7,2.78-14.86,2.51-6.61-.33-12.64-3.07-19-4.38-10.7-2.19-20.4.13-28.54,7.74-.48.45-.7.61-1.24.09-4.44-4.3-10-5.87-15.94-6.86-7.3-1.23-13.94.85-20.51,3.65a42.71,42.71,0,0,1-15.3,3.29c-5.34.2-10.49-.64-14.76-4.31a13.25,13.25,0,0,1-3.88-5.72c-.13-.38-.5-.82-.16-1.19s.79,0,1.16.16a28.66,28.66,0,0,0,16.71,1.28c3.84-.81,7.61-1.87,11.37-3,5.42-1.64,10.86-3.29,16.57-3.63,8.24-.5,15.82,1.94,23.08,5.53a3.53,3.53,0,0,0,3.88-.16A48,48,0,0,1,325.64,168c5.16-.57,10.25.24,15.31,1.29,6,1.23,11.84,2.81,17.92,3.48a28.14,28.14,0,0,0,14-2.08c.64-.26,1.27-.55,1.9-.81A3.11,3.11,0,0,1,375.33,169.81Z"/><path class="cls-3" d="M367.64,195.54c.07-.07.18-.2.19-.2.17.13.08.24-.05.34Z"/><path d="M254.41,298.5c-2.63-2.67-8.39-11.77-8.63-12.15l2.69-1.71c1.61,2.55,6.23,9.6,8.21,11.62Z"/><path d="M251.05,290.31a6.69,6.69,0,0,1-1.75-.26l.86-2.57a2,2,0,0,0,1.46,0,.77.77,0,0,0,.33-.41v-5.56h3.19v5.86a3.23,3.23,0,0,1,0,.44.91.91,0,0,1-.13.37,4.35,4.35,0,0,1-1.48,1.38l-.18.12A4.26,4.26,0,0,1,251.05,290.31Z"/><polygon points="257.13 289.8 255.59 287.43 260.6 287.43 260.6 281.42 263.75 281.42 263.75 298.82 260.6 298.82 260.6 289.84 257.13 289.8"/><path d="M277.53,281.91h-3.21V292a.93.93,0,0,1-1.5.73c-.79-.62-2.79-2.24-4.31-3.47a.86.86,0,0,1,.54-1.53h1.79v-5.83h-7.72v-2.18H277.5"/><path d="M317.69,281.65v17.17h-3.52v-9.58h-5.51v2.88a.9.9,0,0,1-1.61.57c-1.29-1.6-3-3.71-3.66-4.54a1,1,0,0,1,.77-1.58h10v-4.94"/><rect x="279.03" y="281.91" width="3.47" height="16.92"/><rect x="295.98" y="281.78" width="3.2" height="5.78"/><path d="M294.89,298.38a7.82,7.82,0,0,1-1.6-.23,9.68,9.68,0,0,1-3.54-1.88,8.84,8.84,0,0,1-2.62-3.35,6.74,6.74,0,0,1-.5-2.94,5.66,5.66,0,0,1,4.38-5.25l.15,0h5.66v2.87h-5.33a2.78,2.78,0,0,0-2,2.57c-.17,3.17,3.53,4.84,4,5a3,3,0,0,0,.73.25,3.9,3.9,0,0,0,3-.5,3.48,3.48,0,0,0,.95-4.23,2.53,2.53,0,0,0-.18-.27l-.05-.08a2.74,2.74,0,0,0-.25-.34l2.13-1.92a4.82,4.82,0,0,1,.53.69,6.26,6.26,0,0,1,.34.55,6.5,6.5,0,0,1,.4,4.95,6.1,6.1,0,0,1-1.2,2,6.32,6.32,0,0,1-1.48,1.3,5.8,5.8,0,0,1-2.47.73A7.38,7.38,0,0,1,294.89,298.38Z"/><polygon points="264.1 276.11 260.14 276.11 260.96 272.31 264.92 272.31 264.1 276.11"/><path d="M72.07,284.86A4.36,4.36,0,0,0,69,286.2v-4.28H85.54V279H68.18l-4.78-8.63-2.87,1.91L66,279H55.07v2.9H65.81v8.55c-.44.65-.91,2.1-3.16,2-2.51-.09-2.43-2.46-2.43-3.27.17-2.6,3.83-2.72,3.83-2.72l-.47-2.62a7.82,7.82,0,0,0-5.06,1.87c-1.15,1.07-1.37,2.15-1.37,4s1.38,5.38,5.13,5.44c1.52,0,2-.27,3.53-1.34v5H69v-9.31a4.22,4.22,0,0,1,3.18-1.86c1,0,2,1.65,1.91,2.49.36,2.38-2.87,5.29-2.87,5.29l2.22,1.89a21.29,21.29,0,0,0,2.88-3.41,6.52,6.52,0,0,0,1-3.79A5.23,5.23,0,0,0,72.07,284.86Z"/><path d="M100.41,281.89h5.14v16.93h3.14V281.89h6.92a3.84,3.84,0,0,1,1.41,3.27c0,2.32-3.31,2.52-4.34,2.52-.58,3.64,3,7.33,6.4,7.33,1.93,0,3.17.06,4.8-.91v5H127V281.89h2.57V279h-21.2a.49.49,0,0,0,0-.12c-.41-2.18-1.64-6.13-5.23-8.14A6,6,0,0,0,98,270.1a5.61,5.61,0,0,0-2.31,1.71,4.09,4.09,0,0,0-.88,3A11.72,11.72,0,0,0,96,279H83.71v2.89H97.27M98.82,279a4,4,0,0,0-.25-.51,9,9,0,0,1-1.18-3.83,1.59,1.59,0,0,1,.3-1.24,3.06,3.06,0,0,1,1.25-.93,3.64,3.64,0,0,1,3,.47c2.58,1.45,3.56,4.48,3.9,6Zm25.06,2.89v9.29a6.26,6.26,0,0,1-4.61,1.57,3.43,3.43,0,0,1-2.69-2,2.63,2.63,0,0,1-.21-1,5.92,5.92,0,0,0,1.72-.58,3.49,3.49,0,0,0,1.33-1.2,3.88,3.88,0,0,0,.56-1.82,8.68,8.68,0,0,0,0-1,6.11,6.11,0,0,0-.91-2.87c0-.06-.25-.43-.32-.43Z"/><path d="M161.81,281.88h11.9v1.82h-4.86c-1.28,0-2.95.4-3.09,2.74,0,2.73,2.64,4.21,2.64,4.21-1.05.49-1,2.46-1,2.46,0,1.41,1.37,4.4,5.86,4.4a11.13,11.13,0,0,0,7.39-3v4.32h3.09V281.88h4.91v16.94h3.1V281.88h18.81v3.59l-.05-.22a10.38,10.38,0,0,0-3.55,1.57,7.88,7.88,0,0,0-5.22-2.15,5.78,5.78,0,0,0-4.5,2,6.12,6.12,0,0,0-1.45,4.4,7.34,7.34,0,0,0,1.65,3.87,12.69,12.69,0,0,0,1.38,1.58,11.34,11.34,0,0,0,4.29,2.64l.91-2.73a8.34,8.34,0,0,1-3.2-2,8.74,8.74,0,0,1-1.07-1.22,4.64,4.64,0,0,1-1.09-2.37,3.2,3.2,0,0,1,.77-2.34,3,3,0,0,1,2.31-1,5,5,0,0,1,3.16,1.29,7.7,7.7,0,0,0-1.26,2.87l2.81.61a5.81,5.81,0,0,1,4.11-4.1v10.61h3.09V281.89h6.77a3.84,3.84,0,0,1,1.41,3.27c0,2.32-3.31,2.52-4.34,2.52-.58,3.64,3,7.33,6.4,7.33,1.93,0,3.17.06,4.79-.91v5h3.15V281.89h2.61V279h-74.1c-.31-.42-1-1.22-1.19-1.5-1.75-2.12-5-6.08-9.61-7a6.92,6.92,0,0,0-5.83,1.37c-1.21,1-2.93,3.22-1.56,7.09h-2.86v2.88h2.9v16.94h3.1V281.88h16.52ZM144.9,279a1.31,1.31,0,0,0-.08-.21c-1-2.22-.82-3.83.52-4.94A4.41,4.41,0,0,1,149,273c3.64.73,6.37,4,8,6H144.9Zm28.46,15.71c-.81,0-2.47-.37-2.47-1.83s1.36-2.08,2.79-2.08a6.58,6.58,0,0,1,2.19.3l-.62-2.19a7.74,7.74,0,0,0-4.43.11,1.54,1.54,0,0,1-.57-3H176v-4.15h4.7V291A12.19,12.19,0,0,1,173.36,294.74Zm55.32-3.56a6.23,6.23,0,0,1-4.6,1.57,3.43,3.43,0,0,1-2.69-2,2.86,2.86,0,0,1-.22-1,5.73,5.73,0,0,0,1.72-.58,3.45,3.45,0,0,0,1.34-1.2,3.88,3.88,0,0,0,.56-1.82,7,7,0,0,0,0-1,6,6,0,0,0-.9-2.87c0-.06-.25-.43-.32-.43h5.12Z"/><rect class="cls-4" x="244.06" y="279.04" width="76.2" height="2.85"/><path d="M100.8,294.27a4.74,4.74,0,0,0,.44-.87,3,3,0,0,0,.22-.94,2.37,2.37,0,0,0-.12-.79,1.83,1.83,0,0,0-.66-.95,2.78,2.78,0,0,0-1.68-.46c-2.74,0-2.35,2.79-2.35,2.79v.08c-2.28.08-4-.38-5-1.34a3.52,3.52,0,0,1-1-2.66,1.91,1.91,0,0,1,1.88-1.85h7.74V281.4H97.34v3h-5a4.76,4.76,0,0,0-4.57,4.72,6.35,6.35,0,0,0,1.92,4.73,7.57,7.57,0,0,0,3.87,1.9l-3.08,2.83L91.72,300l4.35-4h.09l.72,0h0a1.42,1.42,0,0,0,.33-.07l1.17,3.53,2.83-.67-1.54-3.59a1.69,1.69,0,0,0,.63-.38A2.5,2.5,0,0,0,100.8,294.27Z"/><path d="M88.77,287.54c0-.33,0-.66.09-1H79a1,1,0,0,0-.77,1.58c.66.83,2.37,2.94,3.66,4.54a.9.9,0,0,0,1.61-.57v-2.88h5.1C88.66,288.67,88.73,288.1,88.77,287.54Z"/><path d="M158.8,290.53a5.66,5.66,0,0,1-3.44,1.59,2.53,2.53,0,0,1-2.83-2.84,2.57,2.57,0,0,1,2.7-2.62,8.59,8.59,0,0,1,2.31.46l-.76-2.62s-6.17-1.25-7.49,3.14a5.47,5.47,0,0,0,.12,3.46,5.25,5.25,0,0,0,5.36,3.56c5.45,0,5.52-3.32,5.52-3.32Z"/><path d="M158.75,281.1v17.72h3.09V281.1"/><polyline points="127.53 251.77 129.96 251.77 129.96 249.64 103.61 249.64 103.61 251.77 112.52 251.77"/><polygon points="155.44 247.19 156.02 244.71 153.53 244.7 152.97 247.19 155.44 247.19"/><path d="M222.66,256.92v6.76h2.28V251.77h2.71v3.68a3.5,3.5,0,0,0,1.38,2.84,4.83,4.83,0,0,0,5.1.54v4.85h2.28V251.77h4.15v11.81h2.28V251.77h15.34v4.87a3.5,3.5,0,0,0,1.15,2.62,3.78,3.78,0,0,0,2.67,1.08,4.12,4.12,0,0,0,2.82-.94,3.5,3.5,0,0,0,1.13-2.76v-4.87h6.68v-2.13H220.22v2.13h2.44v5.15ZM262,258a1.64,1.64,0,0,1-1.08-.43,1.21,1.21,0,0,1-.49-.95v-4.87h3.21v4.87a1.23,1.23,0,0,1-.51,1A1.74,1.74,0,0,1,262,258Zm-29.85-.95a2.44,2.44,0,0,1-1.54-.48,1.83,1.83,0,0,1-.71-1.55v-3.27h4.2v4.58A3,3,0,0,1,232.18,257.07Z"/><path d="M129.31,269.08l-.91.87a.3.3,0,0,1-.42,0l-3.51-3.22a.31.31,0,0,1,0-.45l1.23-1.16a.3.3,0,0,1,.44,0l3.18,3.5A.31.31,0,0,1,129.31,269.08Z"/><path d="M203.62,269.08l-.9.87a.31.31,0,0,1-.43,0l-3.5-3.22a.29.29,0,0,1,0-.45l1.23-1.16a.31.31,0,0,1,.44,0l3.18,3.5A.31.31,0,0,1,203.62,269.08Z"/><path d="M175.26,263.68V251.77h3.64v3.68a3.53,3.53,0,0,0,1.38,2.84,4.9,4.9,0,0,0,5.1.56v4.83h2.29V251.77h11.08v2.63s-4.9-.05-6.6,0c-1.54.05-2,1-1.12,2.32a16.89,16.89,0,0,0,1.67,1.92,1.19,1.19,0,0,0,1.25.51c.56-.16.45-.75.45-1.21,0-1,.25-1.25,1.34-1.29h3v7H201V251.77H203v-2.13H165.32v2.13h1.18v3.68a3.5,3.5,0,0,0,1.38,2.84,4.6,4.6,0,0,0,3,1,4.69,4.69,0,0,0,2.13-.49v4.85m0-7.33a3,3,0,0,1-1.95.72,2.44,2.44,0,0,1-1.54-.48,1.83,1.83,0,0,1-.71-1.55v-3.27H173Zm10.32.75a2,2,0,0,1-1.46-.63,1.91,1.91,0,0,1-.65-1.43v-2.47l3.24,4.35A3.31,3.31,0,0,1,183.3,257.1Zm2.08-1.67-2.84-3.66h2.84Z"/><path d="M174,269.22a3,3,0,0,1-1.21-.24,2.3,2.3,0,0,1-1.27-1.42,2.79,2.79,0,0,1,.37-2.63,4.58,4.58,0,0,1,3.71-1.6,3.87,3.87,0,0,1,2.83,1.16c.91,1,1.33,2.46,1.26,4.55l-1.94.47c.16-1.81-.18-3.14-.72-3.71a2,2,0,0,0-1.48-.56,2.71,2.71,0,0,0-2.12.83.87.87,0,0,0-.1.88c.07.18.15.25.24.28a2.69,2.69,0,0,0,1.66-.19l.76,1.75A5.39,5.39,0,0,1,174,269.22Z"/><path d="M252.34,251v12.89h2.25V251"/><path d="M252.38,257.86a4.1,4.1,0,0,1-2.5,1.16,1.85,1.85,0,0,1-2.06-2.07,1.87,1.87,0,0,1,2-1.91,6.29,6.29,0,0,1,1.68.33l-.55-1.9s-4.49-.91-5.45,2.28a4,4,0,0,0,.09,2.52,3.81,3.81,0,0,0,3.9,2.59c4,0,4-2.41,4-2.41Z"/><path d="M268.32,251v12.89h2.25V251"/><path d="M251.62,270.15a4.13,4.13,0,0,1-2.57-.76,2.94,2.94,0,0,1-1-2.83v-.09c.6-2.67,3.8-3.18,5.61-3.06l.94,0v1.86h-1.07s-3.18-.15-3.61,1.52c-.06.65.15.91.33,1,.61.48,2.08.47,3.41,0l.67,1.8A8,8,0,0,1,251.62,270.15Z"/><path d="M153.06,257.86a4.06,4.06,0,0,1-2.5,1.16A1.85,1.85,0,0,1,148.5,257a1.88,1.88,0,0,1,2-1.91,6.29,6.29,0,0,1,1.68.33l-.55-1.9s-4.49-.91-5.45,2.28a4,4,0,0,0,.09,2.52,3.81,3.81,0,0,0,3.9,2.59c4,0,4-2.41,4-2.41Z"/><path d="M153,251v12.89h2.25V251"/><polygon points="137.27 249.64 137.27 251.77 147.52 251.77 152.52 251.77 154.81 251.77 157.23 251.77 157.23 249.64 137.27 249.64"/><path d="M143.28,264.11l-3.92-4.49a3.49,3.49,0,0,1-.36-3.7,3.55,3.55,0,0,1,3.2-2H147v1.91H142.2a1.66,1.66,0,0,0-1.48,1,1.55,1.55,0,0,0,.13,1.66l3.88,4.44Z"/><path d="M122.05,264.11l-3.92-4.49a3.49,3.49,0,0,1-.36-3.7,3.55,3.55,0,0,1,3.2-2h4.81v1.91H121a1.66,1.66,0,0,0-1.48,1,1.55,1.55,0,0,0,.13,1.66l3.88,4.44Z"/><path d="M108.86,264.11l-3.92-4.49a3.49,3.49,0,0,1-.36-3.7,3.54,3.54,0,0,1,3.2-2h4.81v1.91h-4.81a1.66,1.66,0,0,0-1.48,1,1.55,1.55,0,0,0,.13,1.66l3.87,4.44Z"/><path d="M266.81,270h-.21c-3.21-.09-4.22-1.36-4.74-2.45,0-.05,0-.09-.06-.12l1.35-.85.15.28c.24.51.7,1.47,3.35,1.55a3.45,3.45,0,0,0,3.44-2,.9.9,0,0,0,.06-.71.84.84,0,0,0-.67-.51c-.86-.22-2.22.64-2.63.95l-1-1.25c.22-.18,2.24-1.7,4-1.24a2.44,2.44,0,0,1,1.76,1.47,2.5,2.5,0,0,1-.11,2A5,5,0,0,1,266.81,270Z"/><path d="M216,255a2.41,2.41,0,0,1-1.72.44l.85,1.65a3.15,3.15,0,0,1,2.65.35,2.14,2.14,0,0,1,.59,1.82,1.81,1.81,0,0,1-.59,1.25,1.89,1.89,0,0,1-2,.07,5.57,5.57,0,0,1-2-1.87,25.65,25.65,0,0,0-1.62-2.25l-1.85,1.21c.83,1.09,1.53,2.28,2.44,3.3a5.81,5.81,0,0,0,3.46,2.06,4,4,0,0,0,4.3-4.88l2.93-.75-.46-1.52a28.4,28.4,0,0,1-3,.71,4.88,4.88,0,0,0-1.35-1.29,3.38,3.38,0,0,0,.87-2.56,3.45,3.45,0,0,0-1.29-2.38,4.11,4.11,0,0,0-3.62-.58,6.81,6.81,0,0,0-3.11,2.13l1.68,1.45a4,4,0,0,1,2.76-1.53,1.37,1.37,0,0,1,1.27.7c.38.88-.56,2-1.22,2.47"/><rect x="112.39" y="251.77" width="2.3" height="12.25"/><rect x="125.74" y="251.77" width="2.3" height="12.25"/><rect class="cls-5" width="375.33" height="300"/></svg>